HIERARCHY
ROOT Bone
{
	OFFSET 0.000000 0.000000 0.000000
	CHANNELS 6 Xposition Yposition Zposition Xrotation Yrotation Zrotation
	JOINT Bone.001
	{
		OFFSET 0.000000 0.000000 0.082869
		CHANNELS 3 Xrotation Yrotation Zrotation
		JOINT Bone.002
		{
			OFFSET 0.012749 0.000000 0.079681
			CHANNELS 3 Xrotation Yrotation Zrotation
			JOINT Bone.003
			{
				OFFSET 0.012749 0.000000 0.079681
				CHANNELS 3 Xrotation Yrotation Zrotation
				JOINT Bone.004
				{
					OFFSET 0.009562 0.000000 0.079681
					CHANNELS 3 Xrotation Yrotation Zrotation
					JOINT Bone.005
					{
						OFFSET 0.009562 0.000000 0.079681
						CHANNELS 3 Xrotation Yrotation Zrotation
						JOINT Bone.006
						{
							OFFSET 0.009562 0.000000 0.079681
							CHANNELS 3 Xrotation Yrotation Zrotation
							JOINT Bone.007
							{
								OFFSET 0.009562 0.000000 0.079681
								CHANNELS 3 Xrotation Yrotation Zrotation
								JOINT Bone.008
								{
									OFFSET 0.003187 0.000000 0.079681
									CHANNELS 3 Xrotation Yrotation Zrotation
									JOINT Bone.009
									{
										OFFSET 0.006375 0.000000 0.079681
										CHANNELS 3 Xrotation Yrotation Zrotation
										End Site
										{
											OFFSET 0.006375 0.000000 0.079681
										}
									}
								}
							}
						}
					}
				}
			}
		}
	}
}
MOTION
Frames: 23
Frame Time: 0.041667
0.000000 0.000000 0.000000 0.000000 -68.838740 0.000000 0.000000 0.209362 0.000000 0.000000 3.073333 0.000000 0.000000 32.444703 0.000000 0.000000 0.000000 0.000000 0.000000 1.782649 0.000000 0.000000 0.000000 0.000000 0.000000 3.775881 0.000000 0.000000 0.000000 0.000000 0.000000 -1.923077 0.000000 
0.000000 0.000000 0.000000 0.000000 -69.227745 0.000000 0.000000 -1.593247 0.000000 0.000000 2.191614 0.000000 0.000000 35.518036 0.000000 0.000000 0.000000 0.000000 0.000000 1.782649 0.000000 0.000000 0.000000 0.000000 0.000000 1.852804 0.000000 0.000000 1.923077 0.000000 0.000000 -1.923077 0.000000 
0.000000 0.000000 0.000000 0.000000 -70.820992 0.000000 0.000000 2.191614 0.000000 0.000000 -2.191614 0.000000 0.000000 30.456455 0.000000 0.000000 7.253195 0.000000 0.000000 0.000000 0.000000 0.000000 3.635453 0.000000 0.000000 0.000000 0.000000 0.000000 0.000000 0.000000 0.000000 0.000000 0.000000 
0.000000 0.000000 0.000000 0.000000 -70.201124 0.000000 0.000000 0.184230 0.000000 0.000000 2.265917 0.000000 0.000000 27.650069 0.000000 0.000000 5.814031 0.000000 0.000000 1.815685 0.000000 0.000000 1.891965 0.000000 0.000000 0.000000 0.000000 0.000000 1.968767 0.000000 0.000000 0.000000 0.000000 
0.000000 0.000000 0.000000 0.000000 -70.201124 0.000000 0.000000 0.184230 0.000000 0.000000 2.265917 0.000000 0.000000 27.650069 0.000000 0.000000 5.814031 0.000000 0.000000 1.815685 0.000000 0.000000 1.891965 0.000000 0.000000 0.000000 0.000000 0.000000 1.968767 0.000000 0.000000 0.000000 0.000000 
0.000000 0.000000 0.000000 0.000000 -69.227745 0.000000 0.000000 -2.337306 0.000000 0.000000 2.419509 0.000000 0.000000 35.455474 0.000000 0.000000 1.930587 0.000000 0.000000 0.000000 0.000000 0.000000 2.014599 0.000000 0.000000 2.098906 0.000000 0.000000 0.000000 0.000000 0.000000 0.000000 0.000000 
0.000000 0.000000 0.000000 0.000000 -69.145542 0.000000 0.000000 -0.871352 0.000000 0.000000 0.000000 0.000000 0.000000 28.196724 0.000000 0.000000 11.240943 0.000000 0.000000 -1.891965 0.000000 0.000000 3.860733 0.000000 0.000000 2.045408 0.000000 0.000000 -2.045408 0.000000 0.000000 2.045408 0.000000 
0.000000 0.000000 0.000000 0.000000 -69.443955 0.000000 0.000000 -0.572939 0.000000 0.000000 0.000000 0.000000 0.000000 34.479216 0.000000 0.000000 3.066486 0.000000 0.000000 3.860733 0.000000 0.000000 -1.968767 0.000000 0.000000 4.014176 0.000000 0.000000 0.000000 0.000000 0.000000 0.000000 0.000000 
0.000000 0.000000 0.000000 0.000000 -69.443955 0.000000 0.000000 -0.572939 0.000000 0.000000 0.000000 0.000000 0.000000 34.479216 0.000000 0.000000 3.066486 0.000000 0.000000 3.860733 0.000000 0.000000 -1.968767 0.000000 0.000000 4.014176 0.000000 0.000000 0.000000 0.000000 0.000000 0.000000 0.000000 
0.000000 0.000000 0.000000 0.000000 -69.227745 0.000000 0.000000 -2.337306 0.000000 0.000000 6.911227 0.000000 0.000000 30.963757 0.000000 0.000000 1.930587 0.000000 0.000000 0.000000 0.000000 0.000000 4.113505 0.000000 0.000000 -2.098906 0.000000 0.000000 4.281536 0.000000 0.000000 -2.182630 0.000000 
0.000000 0.000000 0.000000 0.000000 -68.198591 0.000000 0.000000 -0.946951 0.000000 0.000000 0.000000 0.000000 0.000000 34.153522 0.000000 0.000000 3.232540 0.000000 0.000000 2.014599 0.000000 0.000000 0.000000 0.000000 0.000000 2.098906 0.000000 0.000000 0.000000 0.000000 0.000000 2.182630 0.000000 
0.000000 0.000000 0.000000 0.000000 -68.198591 0.000000 0.000000 -0.946951 0.000000 0.000000 0.000000 0.000000 0.000000 37.386062 0.000000 0.000000 0.000000 0.000000 0.000000 2.014599 0.000000 0.000000 2.098906 0.000000 0.000000 0.000000 0.000000 0.000000 0.000000 0.000000 0.000000 0.000000 0.000000 
0.000000 0.000000 0.000000 0.000000 -68.962489 0.000000 0.000000 2.161079 0.000000 0.000000 1.029155 0.000000 0.000000 34.012775 0.000000 0.000000 2.014599 0.000000 0.000000 0.000000 0.000000 0.000000 2.098906 0.000000 0.000000 2.182630 0.000000 0.000000 0.000000 0.000000 0.000000 -2.182630 0.000000 
0.000000 0.000000 0.000000 0.000000 -66.801409 0.000000 0.000000 -0.949567 0.000000 0.000000 0.000000 0.000000 0.000000 34.060909 0.000000 0.000000 7.125016 0.000000 0.000000 -2.045408 0.000000 0.000000 2.045408 0.000000 0.000000 0.000000 0.000000 0.000000 2.121096 0.000000 0.000000 -2.121096 0.000000 
0.000000 0.000000 0.000000 0.000000 -66.801409 0.000000 0.000000 -2.344132 0.000000 0.000000 9.214125 0.000000 0.000000 30.186536 0.000000 0.000000 2.098906 0.000000 0.000000 0.000000 0.000000 0.000000 2.182630 0.000000 0.000000 0.000000 0.000000 0.000000 2.264755 0.000000 0.000000 -4.447385 0.000000 
0.000000 0.000000 0.000000 0.000000 -68.198591 0.000000 0.000000 1.397181 0.000000 0.000000 0.000000 0.000000 0.000000 32.421065 0.000000 0.000000 4.635463 0.000000 0.000000 4.281536 0.000000 0.000000 -2.182630 0.000000 0.000000 4.447385 0.000000 0.000000 -2.264755 0.000000 0.000000 0.000000 0.000000 
0.000000 0.000000 0.000000 0.000000 -66.801409 0.000000 0.000000 0.000000 0.000000 0.000000 2.264755 0.000000 0.000000 32.261011 0.000000 0.000000 2.530763 0.000000 0.000000 4.281536 0.000000 0.000000 0.000000 0.000000 0.000000 2.264755 0.000000 0.000000 -2.264755 0.000000 0.000000 -2.182630 0.000000 
0.000000 0.000000 0.000000 0.000000 -65.376435 0.000000 0.000000 -0.395819 0.000000 0.000000 2.337306 0.000000 0.000000 33.366366 0.000000 0.000000 1.257789 0.000000 0.000000 2.245743 0.000000 0.000000 2.337306 0.000000 0.000000 0.000000 0.000000 0.000000 0.000000 0.000000 0.000000 -2.337306 0.000000 
0.000000 0.000000 0.000000 0.000000 -65.556045 0.000000 0.000000 1.019390 0.000000 0.000000 0.000000 0.000000 0.000000 36.890680 0.000000 0.000000 2.182630 0.000000 0.000000 0.000000 0.000000 0.000000 2.264755 0.000000 0.000000 0.000000 0.000000 0.000000 -2.264755 0.000000 0.000000 -2.182630 0.000000 
0.000000 0.000000 0.000000 0.000000 -64.440035 0.000000 0.000000 2.086010 0.000000 0.000000 1.164818 0.000000 0.000000 33.543231 0.000000 0.000000 2.182630 0.000000 0.000000 2.264755 0.000000 0.000000 0.000000 0.000000 0.000000 0.000000 0.000000 0.000000 -2.264755 0.000000 0.000000 2.264755 0.000000 
0.000000 0.000000 0.000000 0.000000 -62.525568 0.000000 0.000000 0.171544 0.000000 0.000000 4.629669 0.000000 0.000000 32.261011 0.000000 0.000000 0.000000 0.000000 0.000000 2.264755 0.000000 0.000000 0.000000 0.000000 0.000000 2.344132 0.000000 0.000000 -2.344132 0.000000 0.000000 -2.264755 0.000000 
0.000000 0.000000 0.000000 0.000000 -61.557071 0.000000 0.000000 -0.796953 0.000000 0.000000 4.629669 0.000000 0.000000 32.261011 0.000000 0.000000 0.000000 0.000000 0.000000 2.264755 0.000000 0.000000 2.344132 0.000000 0.000000 -2.344132 0.000000 0.000000 2.344132 0.000000 0.000000 -4.608887 0.000000 
0.000000 0.000000 0.000000 0.000000 -62.447188 0.000000 0.000000 0.093164 0.000000 0.000000 10.229008 0.000000 0.000000 24.479041 0.000000 0.000000 4.447385 0.000000 0.000000 0.000000 0.000000 0.000000 2.344132 0.000000 0.000000 0.000000 0.000000 0.000000 -2.344132 0.000000 0.000000 0.000000 0.000000 
